<?xml version="1.0" encoding="utf-8"?>
<!-- Generator: Adobe Illustrator 16.0.0, SVG Export Plug-In . SVG Version: 6.00 Build 0)  -->
<!DOCTYPE svg PUBLIC "-//W3C//DTD SVG 1.1//EN" "http://www.w3.org/Graphics/SVG/1.1/DTD/svg11.dtd">
<svg version="1.1" id="Layer_1" xmlns="http://www.w3.org/2000/svg" xmlns:xlink="http://www.w3.org/1999/xlink" x="0px" y="0px"
	 width="595.279px" height="841.891px" viewBox="0 0 595.279 841.891" enable-background="new 0 0 595.279 841.891"
	 xml:space="preserve">
<g>
	
		<image overflow="visible" opacity="0.75" width="589" height="589" xlink:href="7426388670E2A1B4.png"  transform="matrix(1 0 0 1 10.1399 133.4453)">
	</image>
	<g>
		<path fill="#FFDD67" d="M576.678,420.945c0,154.4-124.638,279.037-279.038,279.037S18.603,575.346,18.603,420.945
			c0-154.401,124.637-279.038,279.037-279.038S576.678,266.544,576.678,420.945z"/>
	</g>
</g>
<g>
	<path fill="#F46767" d="M574.818,246.082c-4.651-25.113-18.603-45.576-41.856-52.087c-25.113-6.511-47.436,2.79-68.829,25.113
		c-12.092-33.484-30.694-58.598-60.458-71.62c-29.764-13.022-59.528-3.721-78.131,19.533
		c-19.532,24.183-26.974,62.318-6.511,111.615c19.533,46.506,106.034,139.519,108.825,142.31
		c3.721-1.86,100.453-62.319,123.706-92.083C574.818,300.029,579.468,271.195,574.818,246.082"/>
	<path fill="#F46767" d="M269.737,167.021c-18.603-23.253-48.367-32.555-78.131-19.533c-29.764,13.021-48.366,38.135-60.458,71.62
		c-22.323-21.393-44.646-31.625-69.76-24.183c-22.322,6.511-37.205,26.974-41.855,52.087c-4.65,24.183,0.931,53.947,23.253,82.781
		c24.184,28.833,120.917,89.292,124.637,91.152c2.791-2.791,89.293-95.803,108.825-142.31
		C296.71,229.339,289.269,192.134,269.737,167.021"/>
</g>
<path fill="#664E27" d="M455.761,477.683c0-7.44-4.65-16.742-16.742-19.532c-32.555-6.511-79.99-12.092-141.379-12.092
	c-61.388,0-108.824,6.511-141.379,12.092c-13.021,2.79-16.742,12.092-16.742,19.532c0,67.899,52.087,135.799,158.121,135.799
	C403.674,612.551,455.761,544.651,455.761,477.683"/>
<path fill="#FFFFFF" d="M415.766,479.543c-20.463-3.721-63.249-9.301-118.126-9.301s-97.663,5.58-118.126,9.301
	c-12.092,1.86-13.021,6.511-12.092,13.952c0.931,3.721,0.931,9.301,2.791,14.882c0.93,5.581,2.79,8.371,12.092,7.44
	c17.672-1.859,213.929-1.859,231.601,0c9.302,0.931,10.231-1.859,12.092-7.44c0.93-5.581,1.86-10.231,2.79-14.882
	C428.787,486.054,427.858,481.403,415.766,479.543"/>
</svg>
